<?xml version="1.0" standalone="no"?>
<!DOCTYPE svg PUBLIC "-//W3C//DTD SVG 20010904//EN"
 "http://www.w3.org/TR/2001/REC-SVG-20010904/DTD/svg10.dtd">
<svg version="1.0" xmlns="http://www.w3.org/2000/svg"
 width="981.000000pt" height="981.000000pt" viewBox="0 0 981.000000 981.000000"
 preserveAspectRatio="xMidYMid meet">
<metadata>
Created by potrace 1.11, written by Peter Selinger 2001-2013
</metadata>
<g transform="translate(0.000000,981.000000) scale(0.100000,-0.100000)"
fill="#000000" stroke="none">
<path d="M6195 7580 c-33 -4 -105 -19 -161 -33 -124 -32 -246 -51 -474 -72
-223 -21 -355 -43 -610 -105 -366 -88 -507 -104 -1295 -150 -819 -48 -1032
-79 -1435 -208 -102 -33 -211 -65 -241 -71 -106 -22 -206 19 -277 113 -90 119
-339 270 -447 271 l-50 0 -3 -39 c-2 -28 6 -59 27 -105 40 -89 45 -151 13
-151 -10 0 -65 23 -121 50 -124 61 -220 80 -397 80 -147 0 -147 0 -76 -98 112
-157 211 -348 287 -557 26 -71 64 -171 86 -222 21 -51 39 -107 39 -126 0 -141
-447 -488 -714 -554 -71 -17 -65 -18 -229 14 -40 8 -64 -18 -88 -96 -25 -81
-26 -208 -4 -335 21 -117 35 -140 115 -178 78 -37 125 -67 205 -129 92 -70
199 -132 450 -259 266 -134 491 -232 596 -259 89 -23 228 -36 575 -56 303 -17
363 -27 574 -94 196 -63 324 -98 524 -146 99 -23 165 -44 176 -55 19 -19 30
-64 56 -230 8 -58 32 -177 52 -265 42 -190 45 -278 13 -408 -32 -136 -64 -206
-183 -405 -60 -101 -112 -190 -115 -198 -4 -12 29 -14 206 -14 l211 0 0 73 c0
58 5 83 23 117 28 54 50 70 75 52 32 -23 42 -24 73 -11 19 7 37 25 45 44 7 18
20 122 29 231 17 215 35 323 61 361 l16 25 24 -23 c51 -48 154 -297 154 -374
0 -41 -39 -196 -76 -300 -15 -44 -61 -144 -101 -223 -40 -78 -73 -151 -73
-162 0 -27 64 -34 216 -26 164 8 223 21 254 51 23 23 25 33 25 108 0 48 4 82
10 82 6 -1 29 -7 53 -14 87 -29 122 20 122 171 0 157 -19 454 -42 653 -39 342
-27 503 50 649 52 99 113 160 182 181 107 32 734 46 1115 25 159 -8 181 -12
330 -56 142 -41 174 -47 286 -51 196 -8 317 23 741 188 134 52 243 89 263 89
42 0 48 -10 70 -119 19 -98 41 -140 121 -236 87 -103 151 -202 177 -273 31
-82 30 -248 -2 -352 -39 -131 -78 -189 -250 -380 -181 -201 -256 -316 -238
-364 17 -44 117 -65 308 -66 l115 0 42 108 c48 124 71 164 106 187 24 16 27
16 58 -4 109 -69 133 -55 188 114 66 206 200 483 301 624 85 119 92 135 86
198 -3 29 -3 53 0 53 2 0 49 -23 103 -50 149 -77 202 -119 260 -208 64 -97
160 -285 194 -380 52 -147 32 -278 -96 -612 -96 -250 -107 -290 -85 -323 30
-46 90 -42 338 18 78 18 146 40 150 47 5 7 9 36 9 63 1 28 4 68 8 89 7 37 10
40 56 52 73 19 126 78 126 141 0 15 -12 69 -26 118 -19 66 -27 123 -31 217 -6
133 1 205 42 418 36 194 40 251 20 294 -10 21 -51 71 -92 112 -125 126 -249
340 -260 448 -5 49 -1 58 100 257 172 336 240 597 262 999 13 233 41 348 96
395 34 28 66 32 94 11 19 -13 19 -16 -8 -92 -32 -93 -33 -115 -8 -138 20 -18
123 -27 138 -12 7 7 -14 28 -61 61 -17 13 -16 16 18 72 83 135 46 271 -80 294
-29 6 -59 20 -75 35 -15 14 -68 105 -119 201 -197 377 -269 461 -559 656 -430
289 -811 449 -1221 512 -130 20 -414 33 -930 45 -476 11 -497 11 -585 0z"/>
</g>
</svg>
